<svg xmlns="http://www.w3.org/2000/svg" version="1.1" xmlns:xlink="http://www.w3.org/1999/xlink" xmlns:svgjs="http://svgjs.dev/svgjs" width="2000" height="2000" viewBox="0 0 2000 2000"><g transform="matrix(1,0,0,1,-0.28443113772425477,-0.28443113772459583)"><svg viewBox="0 0 334 334" data-background-color="#ffffff" preserveAspectRatio="xMidYMid meet" height="2000" width="2000" xmlns="http://www.w3.org/2000/svg" xmlns:xlink="http://www.w3.org/1999/xlink"><g id="tight-bounds" transform="matrix(1,0,0,1,0.04749999999998522,0.04750000000001364)"><svg viewBox="0 0 333.90454557049503 333.90454557049503" height="333.90454557049503" width="333.90454557049503"><g><svg></svg></g><g><svg viewBox="0 0 333.90454557049503 333.90454557049503" height="333.90454557049503" width="333.90454557049503"><g><path d="M0 166.952c0-92.205 74.747-166.952 166.952-166.952 92.205 0 166.952 74.747 166.953 166.952 0 92.205-74.747 166.952-166.953 166.953-92.205 0-166.952-74.747-166.952-166.953zM166.952 326.887c88.33 0 159.935-71.605 159.935-159.935 0-88.33-71.605-159.935-159.935-159.935-88.33 0-159.935 71.605-159.935 159.935 0 88.33 71.605 159.935 159.935 159.935z" data-fill-palette-color="tertiary" fill="#1ebbd7" stroke="transparent"></path><ellipse rx="160.27418187383762" ry="160.27418187383762" cx="166.95227278524752" cy="166.95227278524752" fill="#1ebbd7" stroke="transparent" stroke-width="0" fill-opacity="1" data-fill-palette-color="tertiary"></ellipse></g><g transform="matrix(1,0,0,1,89.79191773271306,71.17305217166896)"><svg viewBox="0 0 154.3207101050689 191.55844122715712" height="191.55844122715712" width="154.3207101050689"><g><svg viewBox="0 0 154.3207101050689 191.55844122715712" height="191.55844122715712" width="154.3207101050689"><g><svg viewBox="0 0 213.1584412271571 264.59377168549975" height="191.55844122715712" width="154.3207101050689"><g transform="matrix(1,0,0,1,0,157.10980386807083)"><svg viewBox="0 0 213.1584412271571 107.48396781742895" height="107.48396781742895" width="213.1584412271571"><g><svg viewBox="0 0 213.1584412271571 107.48396781742895" height="107.48396781742895" width="213.1584412271571"><g><svg viewBox="0 0 213.1584412271571 107.48396781742895" height="107.48396781742895" width="213.1584412271571"><g transform="matrix(1,0,0,1,0,0)"><svg width="213.1584412271571" viewBox="1.25 -29.299999237060547 58.900001525878906 29.69999885559082" height="107.48396781742895" data-palette-color="#ffffff"><path d="M9.4 0.4L9.4 0.4Q5.85 0.4 3.7-1.83 1.55-4.05 1.25-7.7L1.25-7.7 5.7-9.05Q6.1-6.3 7.05-4.93 8-3.55 9.85-3.55L9.85-3.55Q11.3-3.55 12.05-4.38 12.8-5.2 12.8-6.6L12.8-6.6Q12.8-7.85 12.25-8.85 11.7-9.85 10.45-10.9L10.45-10.9 5.5-15.15Q4-16.45 2.98-18.05 1.95-19.65 1.95-22.2L1.95-22.2Q1.95-24.5 2.88-26.08 3.8-27.65 5.48-28.48 7.15-29.3 9.4-29.3L9.4-29.3Q12.85-29.3 14.68-27.08 16.5-24.85 16.75-21.7L16.75-21.7 13.15-20.35Q12.95-21.85 12.55-22.98 12.15-24.1 11.45-24.73 10.75-25.35 9.6-25.35L9.6-25.35Q8.3-25.35 7.53-24.48 6.75-23.6 6.75-22.4L6.75-22.4Q6.75-21.65 7.08-20.93 7.4-20.2 8.2-19.5L8.2-19.5 13.3-14.8Q14.35-13.85 15.28-12.75 16.2-11.65 16.8-10.25 17.4-8.85 17.4-7L17.4-7Q17.4-4.55 16.4-2.9 15.4-1.25 13.6-0.43 11.8 0.4 9.4 0.4ZM25.55 0.4L25.55 0.4Q23.85 0.4 22.9-0.5 21.95-1.4 21.57-2.75 21.2-4.1 21.2-5.5L21.2-5.5 21.2-28.9 26.55-28.9 26.55-7.1Q26.55-5.55 27-4.67 27.45-3.8 28.85-3.8L28.85-3.8Q29.75-3.8 30.72-4.33 31.7-4.85 32.6-5.6L32.6-5.6 32.6-28.9 37.95-28.9 37.95 0 32.6 0 32.6-2.85Q31.2-1.5 29.42-0.55 27.65 0.4 25.55 0.4ZM48.75 0L43.4 0 43.4-28.9 48.75-28.9 48.75-26.05Q50.2-27.4 51.95-28.35 53.7-29.3 55.8-29.3L55.8-29.3Q57.55-29.3 58.47-28.4 59.39-27.5 59.77-26.15 60.15-24.8 60.15-23.4L60.15-23.4 60.15 0 54.8 0 54.8-21.85Q54.8-23.4 54.34-24.25 53.9-25.1 52.5-25.1L52.5-25.1Q51.59-25.1 50.62-24.58 49.65-24.05 48.75-23.3L48.75-23.3 48.75 0Z" opacity="1" transform="matrix(1,0,0,1,0,0)" fill="#ffffff" class="undefined-text-0" data-fill-palette-color="quaternary" id="text-0"></path></svg></g></svg></g></svg></g></svg></g><g transform="matrix(1,0,0,1,40.713262274387006,0)"><svg viewBox="0 0 131.7319166783831 131.73541868160348" height="131.73541868160348" width="131.7319166783831"><g><svg xmlns="http://www.w3.org/2000/svg" xmlns:xlink="http://www.w3.org/1999/xlink" version="1.1" x="0" y="0" viewBox="12.54800033569336 12.546998977661133 74.90400695800781 74.90599822998047" enable-background="new 0 0 100 100" xml:space="preserve" height="131.73541868160348" width="131.7319166783831" class="icon-icon-0" data-fill-palette-color="quaternary" id="icon-0"><g fill="#ffffff" data-fill-palette-color="quaternary"><path d="M46 73.104v10.349c0 2.209 1.791 4 4 4s4-1.791 4-4V73.104c-1.301 0.225-2.636 0.349-4 0.349S47.301 73.328 46 73.104z" fill="#ffffff" data-fill-palette-color="quaternary"></path><path d="M54 26.897v-10.35c0-2.209-1.791-4-4-4s-4 1.791-4 4v10.35c1.301-0.225 2.636-0.349 4-0.349S52.699 26.673 54 26.897z" fill="#ffffff" data-fill-palette-color="quaternary"></path><path d="M12.548 49.999c0 2.209 1.791 4 4 4h10.35c-0.225-1.301-0.349-2.636-0.349-4s0.124-2.699 0.349-4h-10.35C14.339 45.999 12.548 47.79 12.548 49.999z" fill="#ffffff" data-fill-palette-color="quaternary"></path><path d="M87.452 49.999c0-2.209-1.791-4-4-4h-10.35c0.225 1.301 0.349 2.636 0.349 4s-0.124 2.699-0.349 4h10.35C85.661 53.999 87.452 52.208 87.452 49.999z" fill="#ffffff" data-fill-palette-color="quaternary"></path><path d="M23.517 23.518c-1.562 1.562-1.562 4.095 0 5.656l7.326 7.325c1.549-2.192 3.464-4.107 5.656-5.656l-7.324-7.325C27.612 21.955 25.079 21.955 23.517 23.518z" fill="#ffffff" data-fill-palette-color="quaternary"></path><path d="M63.501 69.157l7.324 7.325c0.781 0.781 1.805 1.172 2.829 1.172s2.048-0.391 2.829-1.172c1.562-1.562 1.562-4.095 0-5.656l-7.326-7.325C67.608 65.693 65.693 67.608 63.501 69.157z" fill="#ffffff" data-fill-palette-color="quaternary"></path><path d="M30.843 63.501l-7.326 7.325c-1.562 1.562-1.562 4.095 0 5.656 0.781 0.781 1.805 1.172 2.829 1.172s2.048-0.391 2.829-1.172l7.324-7.325C34.307 67.608 32.392 65.693 30.843 63.501z" fill="#ffffff" data-fill-palette-color="quaternary"></path><path d="M70.825 23.518l-7.324 7.325c2.192 1.549 4.107 3.464 5.656 5.656l7.326-7.325c1.562-1.562 1.562-4.095 0-5.656C74.921 21.955 72.388 21.955 70.825 23.518z" fill="#ffffff" data-fill-palette-color="quaternary"></path><path d="M41.814 36.157c-2.328 1.382-4.275 3.329-5.657 5.656-0.768 1.291-1.355 2.695-1.738 4.186-0.33 1.282-0.523 2.618-0.523 4.002 0 1.383 0.193 2.717 0.523 3.998 0.383 1.49 0.971 2.896 1.737 4.188 1.382 2.328 3.329 4.275 5.657 5.657 1.291 0.767 2.696 1.354 4.187 1.737 1.282 0.33 2.617 0.523 4 0.523s2.718-0.193 4-0.523c1.49-0.383 2.896-0.971 4.187-1.737 2.328-1.382 4.275-3.329 5.657-5.657 0.767-1.291 1.354-2.697 1.737-4.188 0.33-1.281 0.523-2.615 0.523-3.998 0-1.384-0.193-2.72-0.523-4.002-0.383-1.49-0.971-2.895-1.738-4.186-1.382-2.327-3.329-4.274-5.657-5.656-1.291-0.766-2.696-1.354-4.186-1.736-1.282-0.33-2.617-0.523-4-0.523s-2.718 0.193-4 0.523C44.511 34.804 43.105 35.392 41.814 36.157zM54 42.962c1.265 0.722 2.316 1.772 3.038 3.037 0.33 0.577 0.588 1.198 0.768 1.852 0.189 0.687 0.299 1.405 0.299 2.15s-0.109 1.463-0.299 2.148c-0.18 0.653-0.437 1.273-0.766 1.85-0.722 1.267-1.773 2.318-3.04 3.041-0.577 0.329-1.197 0.586-1.851 0.766-0.686 0.189-1.404 0.299-2.149 0.299s-1.464-0.109-2.149-0.299c-0.653-0.18-1.273-0.437-1.851-0.766-1.267-0.723-2.318-1.774-3.04-3.041-0.329-0.576-0.586-1.196-0.766-1.85-0.189-0.686-0.299-1.403-0.299-2.148s0.109-1.464 0.299-2.15c0.18-0.653 0.438-1.274 0.768-1.852 0.722-1.265 1.773-2.315 3.038-3.037 0.577-0.329 1.198-0.586 1.853-0.767 0.686-0.188 1.402-0.298 2.147-0.298s1.462 0.109 2.147 0.298C52.802 42.376 53.423 42.633 54 42.962z" fill="#ffffff" data-fill-palette-color="quaternary"></path></g></svg></g></svg></g><g></g></svg></g></svg></g></svg></g></svg></g><defs></defs></svg><rect width="333.90454557049503" height="333.90454557049503" fill="none" stroke="none" visibility="hidden"></rect></g></svg></g></svg>